<?xml version="1.0" encoding="utf-8"?>
<!-- Generator: Adobe Illustrator 17.0.0, SVG Export Plug-In . SVG Version: 6.00 Build 0)  -->
<!DOCTYPE svg PUBLIC "-//W3C//DTD SVG 1.1//EN" "http://www.w3.org/Graphics/SVG/1.1/DTD/svg11.dtd">
<svg version="1.1" id="Capa_1" xmlns="http://www.w3.org/2000/svg" xmlns:xlink="http://www.w3.org/1999/xlink" x="0px" y="0px"
	 width="512px" height="512px" viewBox="0 0 512 512" enable-background="new 0 0 512 512" xml:space="preserve">
<g>
	
		<linearGradient id="SVGID_1_" gradientUnits="userSpaceOnUse" x1="227.8536" y1="533.8642" x2="-11.1464" y2="162.8642" gradientTransform="matrix(1 0 0 -1 194 617)">
		<stop  offset="0.0112" style="stop-color:#DAFCED"/>
		<stop  offset="0.3814" style="stop-color:#E7F0ED"/>
		<stop  offset="1" style="stop-color:#FFD9EC"/>
	</linearGradient>
	<path fill="url(#SVGID_1_)" d="M365.823,56.715c-69.098-27.035-164.784-16.764-217.662,31.51
		c-37.336,34.085-8.439,43.8,17.016,106.17C183.6,239.535,1,233.322,1,314.89c0,94.299,132.251,76.424,181.329,87.218
		c75.036,16.504,140.496,78.242,220.668,70.103c69.795-7.086,96.403-61.855,106.109-124.642
		C527.188,230.593,482.777,102.475,365.823,56.715L365.823,56.715z"/>
</g>
<g>
	<path fill="#6583FE" d="M462.867,420.746c-3.713,0-7.427-1.414-10.253-4.24c-5.654-5.654-5.654-14.853,0-20.506
		c5.652-5.653,14.854-5.653,20.506,0c5.654,5.654,5.654,14.853,0,20.506C470.294,419.332,466.58,420.746,462.867,420.746
		L462.867,420.746z M462.867,401.754c-1.152,0-2.305,0.438-3.183,1.316c-1.754,1.754-1.754,4.609,0,6.364
		c1.756,1.755,4.609,1.755,6.365,0c1.754-1.754,1.754-4.609,0-6.364C465.172,402.193,464.02,401.754,462.867,401.754
		L462.867,401.754z"/>
	<path fill="#FF5BA8" d="M60.78,172.906c-3.713,0-7.427-1.414-10.253-4.24c-5.654-5.654-5.654-14.853,0-20.506
		c5.652-5.653,14.854-5.653,20.506,0c5.654,5.654,5.654,14.853,0,20.506C68.207,171.493,64.493,172.906,60.78,172.906z
		 M60.78,153.915c-1.152,0-2.305,0.438-3.183,1.316c-1.754,1.754-1.754,4.609,0,6.364c1.756,1.755,4.609,1.755,6.365,0
		c1.754-1.754,1.754-4.609,0-6.364C63.085,154.354,61.933,153.915,60.78,153.915z"/>
</g>
<path fill="#01ECA5" d="M98.192,476.573c-2.761,0-5-2.238-5-5c0-3.309-2.691-6-6-6c-2.761,0-5-2.238-5-5s2.239-5,5-5
	c3.309,0,6-2.691,6-6c0-2.762,2.239-5,5-5s5,2.238,5,5c0,3.309,2.691,6,6,6c2.761,0,5,2.238,5,5s-2.239,5-5,5c-3.309,0-6,2.691-6,6
	C103.192,474.335,100.953,476.573,98.192,476.573z"/>
<path fill="#6583FE" d="M451.999,67.906c-2.761,0-5-2.238-5-5c0-3.309-2.691-6-6-6c-2.761,0-5-2.238-5-5s2.239-5,5-5
	c3.309,0,6-2.691,6-6c0-2.762,2.239-5,5-5s5,2.238,5,5c0,3.309,2.691,6,6,6c2.761,0,5,2.238,5,5s-2.239,5-5,5c-3.309,0-6,2.691-6,6
	C456.999,65.668,454.76,67.906,451.999,67.906z"/>
<path fill="#FF5BA8" d="M52.355,450.573c-2.761,0-5-2.238-5-5c0-3.309-2.691-6-6-6c-2.761,0-5-2.238-5-5s2.239-5,5-5
	c3.309,0,6-2.691,6-6c0-2.762,2.239-5,5-5s5,2.238,5,5c0,3.309,2.691,6,6,6c2.761,0,5,2.238,5,5s-2.239,5-5,5c-3.309,0-6,2.691-6,6
	C57.355,448.335,55.116,450.573,52.355,450.573z"/>
<g>
	<g>
		<g>
			<g>
				<path fill="#6583FE" d="M332.669,435.271H179.332c-13.481,0-24.408-10.928-24.408-24.408V101.137
					c0-13.481,10.928-24.408,24.408-24.408h153.337c13.481,0,24.408,10.928,24.408,24.408v309.725
					C357.077,424.343,346.149,435.271,332.669,435.271z"/>
				<path fill="#FFFFFF" d="M154.925,111.64h202.151V400.36H154.925V111.64z"/>
				<path fill="#84F7CD" d="M194.428,202.834l-4.389,4.385c-1.59,1.588-1.59,4.165-0.001,5.754l4.394,4.394
					c2.289,2.289,3.574,5.393,3.574,8.63V400.36h-43.081V111.64h43.081v82.56C198.006,197.439,196.719,200.545,194.428,202.834
					L194.428,202.834z"/>
				<path fill="#2626BC" d="M332.669,439.339H179.332c-15.702,0-28.476-12.775-28.476-28.477V101.137
					c0-15.702,12.775-28.476,28.476-28.476h153.338c15.702,0,28.477,12.775,28.477,28.476v309.725
					C361.145,426.564,348.37,439.339,332.669,439.339L332.669,439.339z M179.332,80.797c-11.216,0-20.34,9.125-20.34,20.34v309.725
					c0,11.216,9.125,20.34,20.34,20.34h153.338c11.216,0,20.34-9.125,20.34-20.34V101.137c0-11.216-9.125-20.34-20.34-20.34H179.332
					z"/>
				<g>
					<path fill="#B7C5FF" d="M270.225,98.998h-28.449c-2.246,0-4.068-1.822-4.068-4.068c0-2.246,1.822-4.068,4.068-4.068h28.449
						c2.246,0,4.068,1.822,4.068,4.068C274.293,97.176,272.471,98.998,270.225,98.998z"/>
				</g>
				<circle fill="#B7C5FF" cx="289.206" cy="94.929" r="4.07"/>
			</g>
			<g>
				<path fill="#FFFFFF" d="M180.533,170.256v-11.945c0-2.246-1.822-4.068-4.068-4.068c-2.246,0-4.068,1.822-4.068,4.068v11.945
					c0,2.246,1.822,4.068,4.068,4.068C178.712,174.324,180.533,172.503,180.533,170.256z"/>
			</g>
			<g>
				<path fill="#8399FE" d="M214.782,164.686h60.762c2.246,0,4.068-1.822,4.068-4.068c0-2.246-1.822-4.068-4.068-4.068h-60.762
					c-2.246,0-4.068,1.822-4.068,4.068C210.714,162.865,212.535,164.686,214.782,164.686L214.782,164.686z"/>
			</g>
			<g>
				<path fill="#8399FE" d="M214.782,179.653h36.353c2.246,0,4.068-1.822,4.068-4.068c0-2.246-1.822-4.068-4.068-4.068h-36.353
					c-2.246,0-4.068,1.822-4.068,4.068C210.714,177.831,212.535,179.653,214.782,179.653z"/>
			</g>
			<g>
				<path fill="#FFFFFF" d="M180.533,216.072v-11.945c0-2.246-1.822-4.068-4.068-4.068c-2.246,0-4.068,1.822-4.068,4.068v11.945
					c0,2.246,1.822,4.068,4.068,4.068C178.712,220.14,180.533,218.319,180.533,216.072z"/>
			</g>
			<g>
				<path fill="#FFFFFF" d="M180.533,261.888v-11.945c0-2.246-1.822-4.068-4.068-4.068c-2.246,0-4.068,1.822-4.068,4.068v11.945
					c0,2.246,1.822,4.068,4.068,4.068C178.712,265.956,180.533,264.134,180.533,261.888z"/>
			</g>
			<g>
				<path fill="#FFFFFF" d="M180.533,307.704V295.76c0-2.246-1.822-4.068-4.068-4.068c-2.246,0-4.068,1.822-4.068,4.068v11.945
					c0,2.246,1.822,4.068,4.068,4.068C178.712,311.772,180.533,309.951,180.533,307.704z"/>
			</g>
			<g>
				<path fill="#FF7EB8" d="M343.399,208.192v73.38c0,4.491-3.637,8.136-8.136,8.136H222.032c-4.499,0-8.136-3.645-8.136-8.136
					v-73.38c0-4.491,3.637-8.136,8.136-8.136h113.231C339.762,200.056,343.399,203.701,343.399,208.192L343.399,208.192z"/>
				<path fill="#FF5BA8" d="M333.627,206.166c0,5.736-4.654,10.39-10.382,10.39c-5.736,0-10.39-4.654-10.39-10.39
					c0-2.294,0.74-4.402,1.993-6.11h16.785C332.887,201.764,333.627,203.872,333.627,206.166L333.627,206.166z"/>
				<circle fill="#FFDBED" cx="323.241" cy="200.06" r="10.385"/>
			</g>
			<g>
				<path fill="#8399FE" d="M343.399,330.291v70.068H213.896v-70.068c0-4.491,3.637-8.136,8.136-8.136h113.231
					C339.762,322.155,343.399,325.8,343.399,330.291z"/>
				<path fill="#6583FE" d="M333.627,328.265c0,5.736-4.654,10.39-10.382,10.39c-5.736,0-10.39-4.654-10.39-10.39
					c0-2.278,0.74-4.393,1.993-6.11h16.785C332.887,323.872,333.627,325.987,333.627,328.265L333.627,328.265z"/>
				<circle fill="#D2DEFF" cx="323.241" cy="322.157" r="10.385"/>
			</g>
			<path fill="#D2DEFF" d="M339.333,143.362H213.075c-2.246,0-4.068-1.822-4.068-4.068v-8.968c0-2.246,1.822-4.068,4.068-4.068
				h126.258c2.246,0,4.068,1.822,4.068,4.068v8.968C343.401,141.541,341.579,143.362,339.333,143.362z"/>
			<path fill="#9FB0FE" d="M339.333,126.258h-16.702v17.105h16.702c2.246,0,4.068-1.822,4.068-4.068v-8.968
				C343.401,128.079,341.579,126.258,339.333,126.258L339.333,126.258z"/>
			<g>
				<g>
					<path fill="#FFFFFF" d="M290.288,252.553h-53.439c-2.246,0-4.068,1.822-4.068,4.068c0,2.246,1.822,4.068,4.068,4.068h53.439
						c2.246,0,4.068-1.822,4.068-4.068C294.356,254.374,292.535,252.553,290.288,252.553z"/>
				</g>
				<g>
					<path fill="#02FFB3" d="M310.326,259.272l8.576-17.521c1.323-2.703-0.645-5.856-3.654-5.856c-1.553,0-2.971,0.884-3.654,2.28
						l-8.576,17.521c-1.323,2.703,0.645,5.856,3.654,5.856C308.225,261.551,309.642,260.667,310.326,259.272z"/>
				</g>
				<g>
					<path fill="#FFFFFF" d="M290.288,236.746h-53.439c-2.246,0-4.068,1.822-4.068,4.068c0,2.246,1.822,4.068,4.068,4.068h53.439
						c2.246,0,4.068-1.822,4.068-4.068C294.356,238.568,292.535,236.746,290.288,236.746z"/>
				</g>
				<path fill="#FFFFFF" d="M246.353,217.752h-9.504c-2.246,0-4.068,1.822-4.068,4.068c0,2.246,1.822,4.068,4.068,4.068h9.504
					c2.246,0,4.068-1.822,4.068-4.068C250.421,219.574,248.599,217.752,246.353,217.752z"/>
			</g>
			<g>
				<g>
					<path fill="#FFFFFF" d="M290.288,374.732h-53.439c-2.246,0-4.068,1.822-4.068,4.068s1.822,4.068,4.068,4.068h53.439
						c2.246,0,4.068-1.822,4.068-4.068S292.535,374.732,290.288,374.732z"/>
				</g>
				<g>
					<path fill="#02FFB3" d="M310.326,381.45l8.576-17.521c1.323-2.703-0.645-5.856-3.654-5.856c-1.553,0-2.971,0.884-3.654,2.28
						l-8.576,17.521c-1.323,2.703,0.645,5.856,3.654,5.856C308.225,383.73,309.642,382.846,310.326,381.45z"/>
				</g>
				<g>
					<path fill="#FFFFFF" d="M290.288,358.925h-53.439c-2.246,0-4.068,1.822-4.068,4.068c0,2.246,1.822,4.068,4.068,4.068h53.439
						c2.246,0,4.068-1.822,4.068-4.068C294.356,360.747,292.535,358.925,290.288,358.925z"/>
				</g>
				<path fill="#FFFFFF" d="M246.353,339.931h-9.504c-2.246,0-4.068,1.822-4.068,4.068s1.822,4.068,4.068,4.068h9.504
					c2.246,0,4.068-1.822,4.068-4.068S248.599,339.931,246.353,339.931z"/>
			</g>
		</g>
	</g>
</g>
</svg>
