<svg height="512pt" viewBox="-11 0 512 512" width="512pt" xmlns="http://www.w3.org/2000/svg"><path d="m425.058594 433.121094c40.308594-43.664063 64.941406-102.011719 64.941406-166.121094 0-135.308594-109.691406-245-245-245s-245 109.691406-245 245c0 35.394531 7.519531 69.03125 21.027344 99.417969zm0 0" fill="#f948b4"/><path d="m107.710938 53.566406v45.242188h303.945312c6.898438 0 12.484375 5.589844 12.484375 12.484375v265.535156h32.601563c7.015624 0 12.703124-5.683594 12.703124-12.699219v-310.5625zm0 0" fill="#11dfef"/><path d="m107.710938 53.566406h65.410156v45.242188h-65.410156zm0 0" fill="#0ac6e5"/><path d="m425.867188 432.253906v-281.601562h-361.734376v45.242187h303.945313c6.894531 0 12.484375 5.589844 12.484375 12.484375v262.714844c16.644531-11.078125 31.863281-24.132812 45.304688-38.839844zm0 0" fill="#d5f1fe"/><path d="m64.132812 150.652344h65.40625v45.242187h-65.40625zm0 0" fill="#11dfef"/><path d="m20.554688 365.339844c37.886718 86.34375 124.113281 146.660156 224.445312 146.660156 50.875 0 98.125-15.511719 137.289062-42.054688v-222.207031h-361.734374zm0 0" fill="#e6f7fe"/><path d="m85.964844 247.738281h-65.410156v117.601563c14.960937 34.101562 37.472656 64.136718 65.40625 88.007812v-205.609375zm0 0" fill="#d5f1fe"/><path d="m382.289062 250.039062v-42.132812c0-7.585938-6.152343-13.734375-13.738281-13.734375h-334.257812c-7.589844 0-13.738281 6.148437-13.738281 13.734375v42.132812zm0 0" fill="#615df9"/><path d="m99.699219 194.167969h-65.40625c-7.589844 0-13.738281 6.152343-13.738281 13.738281v42.132812h65.410156v-42.132812c0-7.585938 6.148437-13.738281 13.734375-13.738281zm0 0" fill="#3342ae"/><path d="m425.867188 152.953125v-42.132813c0-7.585937-6.148438-13.734374-13.738282-13.734374h-334.257812c-7.589844 0-13.738282 6.148437-13.738282 13.734374v42.132813zm0 0" fill="#615df9"/><path d="m143.277344 97.085938h-65.40625c-7.589844 0-13.738282 6.148437-13.738282 13.734374v42.132813h65.40625v-42.132813c0-7.585937 6.152344-13.734374 13.738282-13.734374zm0 0" fill="#3342ae"/><path d="m469.445312 55.871094v-42.132813c0-7.589843-6.148437-13.738281-13.738281-13.738281h-334.257812c-7.585938 0-13.738281 6.148438-13.738281 13.738281v42.132813zm0 0" fill="#615df9"/><path d="m186.855469 0h-65.40625c-7.585938 0-13.738281 6.148438-13.738281 13.738281v42.132813h65.410156v-42.132813c0-7.589843 6.148437-13.738281 13.734375-13.738281zm0 0" fill="#3342ae"/><path d="m149.53125 39.4375c-6.359375 0-11.507812-5.160156-11.507812-11.496094 0-7.320312 6.714843-12.707031 13.75-11.289062 5.589843 1.140625 9.265624 5.988281 9.265624 11.289062 0 6.25-5.09375 11.496094-11.507812 11.496094zm0 0" fill="#f948b4"/><path d="m184.628906 39.4375c-6.363281 0-11.507812-5.152344-11.507812-11.496094 0-7.429687 6.851562-12.6875 13.753906-11.289062 5.585938 1.140625 9.261719 5.988281 9.261719 11.289062 0 6.265625-5.101563 11.496094-11.507813 11.496094zm0 0" fill="#fecd0a"/><path d="m219.730469 39.4375c-6.390625 0-11.507813-5.195312-11.507813-11.496094 0-7.339844 6.722656-12.703125 13.75-11.289062 5.613282 1.144531 9.265625 6.015625 9.265625 11.289062 0 6.257813-5.074219 11.496094-11.507812 11.496094zm0 0" fill="#39df74"/><path d="m375.734375 36.566406h-110.386719c-4.765625 0-8.628906-3.863281-8.628906-8.632812 0-4.765625 3.863281-8.628906 8.628906-8.628906h110.386719c4.769531 0 8.632813 3.863281 8.632813 8.628906 0 4.769531-3.863282 8.632812-8.632813 8.632812zm0 0" fill="#aeaeff"/><path d="m431.320312 36.566406h-18.410156c-4.769531 0-8.632812-3.863281-8.632812-8.632812 0-4.765625 3.863281-8.628906 8.632812-8.628906h18.410156c4.769532 0 8.632813 3.863281 8.632813 8.628906 0 4.769531-3.867187 8.632812-8.632813 8.632812zm0 0" fill="#aeaeff"/><path d="m141.179688 460.664062-48.953126-48.953124c-4.492187-4.492188-4.492187-11.78125 0-16.273438l48.953126-48.953125c4.496093-4.496094 11.78125-4.496094 16.273437 0 4.496094 4.492187 4.496094 11.78125.003906 16.273437l-40.816406 40.816407 40.816406 40.816406c4.492188 4.492187 4.492188 11.78125 0 16.273437-4.496093 4.496094-11.78125 4.492188-16.277343 0zm0 0" fill="#f948b4"/><path d="m157.453125 444.390625-40.8125-40.816406 6.285156-6.285157c-10.140625 3.28125-19.609375-6.527343-16.019531-16.535156l-14.679688 14.683594c-4.496093 4.492188-4.496093 11.78125 0 16.273438l48.953126 48.953124c4.492187 4.492188 11.78125 4.496094 16.273437 0 4.496094-4.492187 4.496094-11.78125 0-16.273437zm0 0" fill="#e00e8b"/><path d="m245.386719 460.664062c-4.492188-4.492187-4.492188-11.78125 0-16.273437l40.816406-40.816406-40.816406-40.816407c-4.492188-4.496093-4.492188-11.78125 0-16.277343 4.496093-4.492188 11.78125-4.492188 16.273437 0l48.957032 48.957031c4.488281 4.492188 4.492187 11.78125-.003907 16.273438l-48.953125 48.953124c-4.492187 4.492188-11.777344 4.496094-16.273437 0zm0 0" fill="#f948b4"/><path d="m174.808594 463.03125c-5.800782-2.597656-8.402344-9.40625-5.804688-15.207031l43.828125-97.90625c2.597657-5.800781 9.402344-8.398438 15.203125-5.800781 5.800782 2.597656 8.398438 9.40625 5.804688 15.203124l-43.828125 97.910157c-2.589844 5.78125-9.386719 8.40625-15.203125 5.800781zm0 0" fill="#f948b4"/><path d="m193.199219 393.777344-24.195313 54.046875c-2.597656 5.804687 0 12.609375 5.800782 15.207031 5.820312 2.605469 12.617187-.019531 15.207031-5.800781l24.679687-55.136719c-7.777344 7.21875-20.597656 2.394531-21.492187-8.316406zm0 0" fill="#e00e8b"/><path d="m105.949219 136.523438c-6.359375 0-11.507813-5.160157-11.507813-11.496094 0-7.316406 6.714844-12.707032 13.753906-11.289063 5.585938 1.140625 9.265626 5.988281 9.265626 11.289063 0 6.25-5.097657 11.496094-11.511719 11.496094zm0 0" fill="#f948b4"/><path d="m141.050781 136.523438c-6.363281 0-11.507812-5.152344-11.507812-11.496094 0-7.429688 6.851562-12.6875 13.75-11.289063 5.589843 1.140625 9.265625 5.988281 9.265625 11.289063 0 6.265625-5.101563 11.496094-11.507813 11.496094zm0 0" fill="#fecd0a"/><path d="m176.148438 136.523438c-6.386719 0-11.507813-5.195313-11.507813-11.496094 0-7.339844 6.726563-12.703125 13.753906-11.289063 5.609375 1.144531 9.261719 6.015625 9.261719 11.289063 0 6.257812-5.070312 11.496094-11.507812 11.496094zm0 0" fill="#39df74"/><path d="m332.15625 133.652344h-110.386719c-4.765625 0-8.632812-3.863282-8.632812-8.628906 0-4.769532 3.867187-8.632813 8.632812-8.632813h110.386719c4.765625 0 8.628906 3.863281 8.628906 8.632813 0 4.765624-3.863281 8.628906-8.628906 8.628906zm0 0" fill="#aeaeff"/><path d="m387.742188 133.652344h-18.414063c-4.765625 0-8.632813-3.863282-8.632813-8.628906 0-4.769532 3.867188-8.632813 8.632813-8.632813h18.414063c4.765624 0 8.628906 3.863281 8.628906 8.632813 0 4.765624-3.863282 8.628906-8.628906 8.628906zm0 0" fill="#aeaeff"/><path d="m62.371094 233.609375c-6.359375 0-11.507813-5.160156-11.507813-11.496094 0-7.316406 6.714844-12.707031 13.753907-11.289062 5.585937 1.140625 9.261718 5.988281 9.261718 11.289062 0 6.25-5.09375 11.496094-11.507812 11.496094zm0 0" fill="#f948b4"/><path d="m97.46875 233.609375c-6.363281 0-11.507812-5.152344-11.507812-11.496094 0-7.429687 6.851562-12.6875 13.753906-11.289062 5.585937 1.140625 9.261718 5.988281 9.261718 11.289062 0 6.265625-5.097656 11.496094-11.507812 11.496094zm0 0" fill="#fecd0a"/><path d="m132.570312 233.609375c-6.390624 0-11.507812-5.195313-11.507812-11.496094 0-7.339843 6.722656-12.703125 13.75-11.289062 5.613281 1.144531 9.265625 6.015625 9.265625 11.289062 0 6.257813-5.074219 11.496094-11.507813 11.496094zm0 0" fill="#39df74"/><path d="m288.574219 230.738281h-110.386719c-4.765625 0-8.628906-3.863281-8.628906-8.628906 0-4.769531 3.863281-8.632813 8.628906-8.632813h110.386719c4.769531 0 8.632812 3.863282 8.632812 8.632813 0 4.765625-3.863281 8.628906-8.632812 8.628906zm0 0" fill="#aeaeff"/><g fill="#8181fc"><path d="m340.453125 27.933594c0-4.765625 3.863281-8.628906 8.632813-8.628906h-83.734376c-4.769531 0-8.632812 3.863281-8.632812 8.628906 0 4.769531 3.863281 8.632812 8.632812 8.632812h83.734376c-4.769532 0-8.632813-3.863281-8.632813-8.632812zm0 0"/><path d="m296.871094 125.023438c0-4.769532 3.867187-8.632813 8.632812-8.632813h-83.734375c-4.765625 0-8.632812 3.863281-8.632812 8.632813 0 4.765624 3.867187 8.628906 8.632812 8.628906h83.734375c-4.765625 0-8.632812-3.863282-8.632812-8.628906zm0 0"/><path d="m253.292969 222.109375c0-4.769531 3.863281-8.632813 8.632812-8.632813h-83.734375c-4.769531 0-8.632812 3.863282-8.632812 8.632813 0 4.765625 3.863281 8.628906 8.632812 8.628906h83.734375c-4.769531 0-8.632812-3.863281-8.632812-8.628906zm0 0"/></g><path d="m344.160156 230.738281h-18.410156c-4.769531 0-8.632812-3.863281-8.632812-8.628906 0-4.769531 3.863281-8.632813 8.632812-8.632813h18.410156c4.769532 0 8.632813 3.863282 8.632813 8.632813 0 4.765625-3.867188 8.628906-8.632813 8.628906zm0 0" fill="#aeaeff"/><path d="m310.617188 395.4375-14.515626-14.515625c3.445313 10.035156-6.132812 19.734375-16.246093 16.304687l6.347656 6.347657-40.8125 40.816406c-4.496094 4.492187-4.496094 11.78125 0 16.273437 4.492187 4.496094 11.78125 4.492188 16.273437 0l48.953126-48.953124c4.492187-4.492188 4.488281-11.78125 0-16.273438zm0 0" fill="#e00e8b"/></svg>